<?xml version="1.0" encoding="UTF-8" standalone="no"?>
<!DOCTYPE svg PUBLIC "-//W3C//DTD SVG 1.1//EN" "http://www.w3.org/Graphics/SVG/1.1/DTD/svg11.dtd">
<svg width="100%" height="100%" viewBox="0 0 4717 4717" version="1.1" xmlns="http://www.w3.org/2000/svg" xmlns:xlink="http://www.w3.org/1999/xlink" xml:space="preserve" xmlns:serif="http://www.serif.com/" style="fill-rule:evenodd;clip-rule:evenodd;stroke-linejoin:round;stroke-miterlimit:2;">
    <g transform="matrix(1,0,0,1,-1808.503333,-1808.384583)">
        <g id="Icons" transform="matrix(4.166667,0,0,4.166667,0,0)">
            <g transform="matrix(1,0,0,1,1000.0278,637.6363)">
                <path d="M0,724.727C-200.127,724.727 -362.363,562.492 -362.363,362.364C-362.363,162.236 -200.127,-0 0,-0C200.127,-0 362.363,162.236 362.363,362.364C362.363,562.492 200.127,724.727 0,724.727M558.165,439.075C558.165,439.075 565.988,411.707 565.988,362.364C565.988,319.826 558.165,285.653 558.165,285.653L430.788,260.001C419.768,213.448 401.397,169.744 376.969,130.169L448.925,21.923C448.925,21.923 435.105,-2.959 400.214,-37.85C370.134,-67.929 340.44,-86.561 340.44,-86.561L232.194,-14.605C192.619,-39.034 148.915,-57.404 102.362,-68.424L76.711,-195.801C76.711,-195.801 49.344,-203.624 0,-203.624C-42.538,-203.624 -76.71,-195.801 -76.71,-195.801L-102.363,-68.424C-148.916,-57.404 -192.62,-39.034 -232.194,-14.605L-340.44,-86.561C-340.44,-86.561 -365.322,-72.742 -400.213,-37.85C-430.292,-7.771 -448.925,21.923 -448.925,21.923L-376.97,130.169C-401.397,169.744 -419.768,213.448 -430.789,260.001L-558.165,285.653C-558.165,285.653 -565.987,313.019 -565.987,362.364C-565.987,404.902 -558.165,439.075 -558.165,439.075L-430.789,464.725C-419.768,511.279 -401.397,554.983 -376.97,594.558L-448.925,702.803C-448.925,702.803 -435.105,727.685 -400.213,762.578C-370.134,792.656 -340.44,811.288 -340.44,811.288L-232.194,739.333C-192.62,763.761 -148.916,782.131 -102.363,793.151L-76.71,920.528C-76.71,920.528 -49.344,928.351 0,928.351C42.538,928.351 76.711,920.528 76.711,920.528L102.362,793.151C148.915,782.131 192.619,763.761 232.194,739.333L340.44,811.288C340.44,811.288 365.322,797.468 400.214,762.578C430.292,732.498 448.925,702.803 448.925,702.803L376.969,594.558C401.397,554.983 419.768,511.279 430.788,464.725L558.165,439.075Z" style="fill:rgb(166,141,103);fill-rule:nonzero;"/>
            </g>
            <g transform="matrix(1,0,0,1,1097.96,954.5277)">
                <path d="M0,90.943L174.689,50.696L174.689,40.25L0,0.001C-29.065,-6.696 -51.597,-29.661 -57.74,-58.848L-92.687,-224.898L-103.177,-224.898L-138.125,-58.848C-144.268,-29.661 -166.799,-6.696 -195.864,0.001L-370.554,40.25L-370.554,50.696L-195.865,90.943C-166.799,97.639 -144.268,120.604 -138.125,149.792L-103.177,315.841L-92.687,315.841L-57.74,149.792C-51.597,120.604 -29.065,97.639 0,90.943" style="fill:rgb(166,141,103);fill-rule:nonzero;"/>
            </g>
            <g transform="matrix(0.974467,0.22453,0.22453,-0.974467,1134.048967,926.140997)">
                <path d="M12.341,5.082L67.826,5.082C32.505,64.935 -30.718,103.92 -100.172,108.523L-77.495,59.582C-42.485,51.615 -10.883,32.377 12.341,5.082" style="fill:rgb(166,141,103);fill-rule:nonzero;"/>
            </g>
            <g transform="matrix(-0.205953,0.978562,0.978562,0.205953,1127.09729,1071.584886)">
                <path d="M87.435,-37.993L141.374,-37.993C107.998,23.089 46.046,64.064 -23.11,70.948L0.215,20.605C34.745,11.008 65.486,-9.578 87.435,-37.993" style="fill:rgb(166,141,103);fill-rule:nonzero;"/>
            </g>
            <g transform="matrix(-0.20595,-0.978563,-0.978563,0.20595,922.322619,1049.844093)">
                <path d="M-152.482,14.79L-98.542,14.79C-76.593,43.205 -45.854,63.791 -11.324,73.388L12.001,123.731C-57.154,116.846 -119.107,75.873 -152.482,14.79" style="fill:rgb(166,141,103);fill-rule:nonzero;"/>
            </g>
            <g transform="matrix(0.824821,0.565394,0.565394,-0.824821,823.557593,904.865561)">
                <path d="M34.949,0.807C30.574,36.376 37.801,72.661 55.63,103.825L34.949,153.644C-8.669,99.399 -22.76,26.473 -2.604,-40.039L34.949,0.807Z" style="fill:rgb(166,141,103);fill-rule:nonzero;"/>
            </g>
            <g transform="matrix(0.205954,0.978562,0.978562,-0.205954,1284.341931,657.811927)">
                <path d="M-25.636,-247.598L22.598,-247.598C64.924,-141.23 170.355,-72.14 284.692,-75.711L305.134,-31.593C158.654,-18.165 20.974,-108.054 -25.636,-247.598" style="fill:rgb(166,141,103);fill-rule:nonzero;"/>
            </g>
            <g transform="matrix(0.205954,-0.978562,-0.978562,-0.205954,759.856229,677.254679)">
                <path d="M-12.664,-200.398L35.57,-200.398C-11.041,-60.854 -148.719,29.035 -295.199,15.607L-274.758,-28.51C-160.421,-24.939 -54.989,-94.029 -12.664,-200.398" style="fill:rgb(166,141,103);fill-rule:nonzero;"/>
            </g>
            <g transform="matrix(-0.205954,0.978562,0.978562,0.205954,1112.841229,1030.623879)">
                <path d="M246.965,-15.607L295.199,-15.607C248.588,123.937 110.91,213.826 -35.57,200.398L-15.129,156.281C99.207,159.851 204.64,90.762 246.965,-15.607" style="fill:rgb(166,141,103);fill-rule:nonzero;"/>
            </g>
            <g transform="matrix(-0.974468,-0.224526,-0.224526,0.974468,884.65202,1322.816289)">
                <path d="M211.267,-233.333L259.89,-233.333C210.492,-94.781 71.052,-7.651 -75.156,-24.024L-54.879,-67.789C59.427,-61.475 166.439,-128.091 211.267,-233.333" style="fill:rgb(166,141,103);fill-rule:nonzero;"/>
            </g>
        </g>
    </g>
</svg>
