<?xml version="1.0" encoding="UTF-8" standalone="no"?>
<!DOCTYPE svg PUBLIC "-//W3C//DTD SVG 1.1//EN" "http://www.w3.org/Graphics/SVG/1.1/DTD/svg11.dtd">
<svg width="100%" height="100%" viewBox="0 0 4011 4917" version="1.1" xmlns="http://www.w3.org/2000/svg" xmlns:xlink="http://www.w3.org/1999/xlink" xml:space="preserve" xmlns:serif="http://www.serif.com/" style="fill-rule:evenodd;clip-rule:evenodd;stroke-linejoin:round;stroke-miterlimit:2;">
    <g transform="matrix(1,0,0,1,-2255.06375,-1708.178333)">
        <g id="Icons" transform="matrix(4.166667,0,0,4.166667,0,0)">
            <g transform="matrix(1,0,0,1,1128.4053,1145.2628)">
                <path d="M0,-290.526L0,-380.307L67.432,-417.944C70.31,-419.549 73.551,-416.511 72.133,-413.536L33.891,-333.335L72.761,-265.854C71.067,-263.918 71.093,-263.948 69.399,-262.013L0,-290.526ZM-211.803,-290.526L-281.202,-262.013C-282.896,-263.948 -282.87,-263.918 -284.563,-265.854L-245.693,-333.335L-283.935,-413.536C-285.354,-416.511 -282.112,-419.549 -279.234,-417.944L-211.803,-380.307L-211.803,-290.526ZM143.914,9.78C143.914,9.78 373.641,-115.128 375.388,-393.769L281.052,-414.732L366.652,-488.978C366.652,-488.978 318.611,-661.927 152.649,-735.3L119.457,-572.832L-1.738,-496.333L-1.738,-471.842C-1.738,-447.542 -7.808,-438.491 -26.633,-433.785L-26.633,-500.319L-105.901,-570.212L-185.17,-500.319L-185.17,-433.785C-203.995,-438.491 -210.064,-447.542 -210.064,-471.842L-210.064,-496.333L-331.26,-572.832L-364.452,-735.3C-530.414,-661.927 -578.455,-488.978 -578.455,-488.978L-492.854,-414.732L-587.19,-393.769C-585.443,-115.128 -355.717,9.78 -355.717,9.78L-284.092,-171.031L-209.846,-199.856L-209.573,-221.061C-208.754,-248.224 -185.17,-244.458 -185.17,-244.458L-185.17,-184.389L-146.081,-162.296L-146.081,104.99L-173.19,121.672C-173.502,125.694 -173.621,127.233 -173.933,131.254L-150.449,151.284L-150.449,344.324L-186.262,385.377L-179.273,398.479L-152.196,398.479L-105.901,444.774L-59.606,398.479L-32.528,398.479L-25.541,385.377L-61.354,344.324L-61.354,151.284L-37.87,131.254C-38.182,127.233 -38.301,125.694 -38.612,121.672L-65.722,104.99L-65.722,-162.296L-26.633,-184.389L-26.633,-244.458C-26.633,-244.458 -3.049,-248.224 -2.229,-221.061L-1.957,-199.856L72.289,-171.031L143.914,9.78Z" style="fill:rgb(166,141,103);fill-rule:nonzero;"/>
            </g>
            <g transform="matrix(1,0,0,1,1403.5908,1502.689)">
                <path d="M0,-345.126C-39.924,-296.295 -175.59,-124.181 -213.781,-75.691C-210.859,-70.98 -210.822,-70.921 -207.9,-66.21L-114.675,-85.601L-112.928,0L35.564,-179.064L-66.633,-152.86L5.065,-342.176C2.153,-343.872 2.912,-343.43 0,-345.126" style="fill:rgb(166,141,103);fill-rule:nonzero;"/>
            </g>
            <g transform="matrix(1,0,0,1,636.3516,1499.7382)">
                <path d="M0,-339.225L71.699,-149.909L-30.499,-176.113L117.993,2.951L119.74,-82.65L212.966,-63.26C215.888,-67.97 215.925,-68.03 218.847,-72.741C180.654,-121.231 44.988,-293.346 5.065,-342.176C2.153,-340.479 2.912,-340.921 0,-339.225" style="fill:rgb(166,141,103);fill-rule:nonzero;"/>
            </g>
        </g>
    </g>
</svg>
