<?xml version="1.0" encoding="UTF-8" standalone="no"?>
<!DOCTYPE svg PUBLIC "-//W3C//DTD SVG 1.1//EN" "http://www.w3.org/Graphics/SVG/1.1/DTD/svg11.dtd">
<svg width="100%" height="100%" viewBox="2038 1989 4446 4292" version="1.1" xmlns="http://www.w3.org/2000/svg" xmlns:xlink="http://www.w3.org/1999/xlink" xml:space="preserve" xmlns:serif="http://www.serif.com/" style="fill-rule:evenodd;clip-rule:evenodd;stroke-linejoin:round;stroke-miterlimit:2;">
    <g id="Icons" transform="matrix(4.166667,0,0,4.166667,0,0)">
        <g transform="matrix(1,0,0,1,938.999,663.6192)">
            <path d="M0,657.123L0,382.142C21.822,400.204 40.235,422.194 54.118,447.097C64.119,465.036 68.747,485.484 68.747,506.023L68.747,666.484C45.157,665.493 22.175,662.298 0,657.123M-268.389,323.591C-268.389,242.307 -237.967,133.409 -208.695,54.531C-206.625,48.433 -204.886,42.607 -203.229,36.851C-177.115,31.233 -151.76,26.647 -127.673,22.965L-127.673,599.229C-213.075,537.526 -268.389,438.62 -268.389,323.591M68.747,7.641L68.747,149.275C68.747,170.657 64.007,191.985 53.491,210.602C39.683,235.045 21.495,256.648 0,274.439L0,9.604C30.845,7.848 54.61,7.569 68.747,7.641M167.01,9.607L167.01,274.439C145.515,256.648 127.327,235.045 113.519,210.602C103.002,191.985 98.263,170.657 98.263,149.275L98.263,7.641C112.415,7.569 136.179,7.85 167.01,9.607M375.706,54.531C404.977,133.409 435.398,242.307 435.398,323.591C435.398,438.62 380.085,537.526 294.683,599.229L294.683,22.973C318.772,26.656 344.128,31.244 370.243,36.863C371.899,42.615 373.637,48.437 375.706,54.531M112.892,447.097C126.775,422.194 145.188,400.204 167.01,382.142L167.01,657.123C144.834,662.298 121.853,665.493 98.263,666.484L98.263,506.023C98.263,485.484 102.891,465.036 112.892,447.097M-98.21,334.514L-94.268,335.422C-71.061,340.769 -49.315,349.686 -29.463,361.411L-29.463,648.891C-53.648,641.044 -76.701,630.844 -98.21,618.378L-98.21,334.514ZM-94.267,321.159L-98.21,322.068L-98.21,18.824C-73.43,15.598 -50.336,13.269 -29.463,11.617L-29.463,295.17C-49.315,306.894 -71.06,315.812 -94.267,321.159M265.22,322.068L261.277,321.159C238.07,315.812 216.325,306.894 196.473,295.17L196.473,11.622C217.347,13.275 240.441,15.603 265.22,18.832L265.22,322.068ZM261.278,335.422L265.22,334.514L265.22,618.378C243.711,630.844 220.659,641.044 196.473,648.891L196.473,361.411C216.325,349.686 238.071,340.769 261.278,335.422M564.759,323.38C564.759,250.854 527.69,150.156 497.46,72.087C521.299,80.311 545.185,89.517 568.824,99.953L545.452,43.879C522.578,34.195 499.538,25.69 476.594,18.123C472.127,6.313 468.257,-4.317 465.322,-13.328C453.666,-49.111 486.542,-95.256 526.703,-99.33L526.703,-158.256C526.703,-158.256 344.117,-174.338 360.329,-12.843C207.625,-44.575 83.478,-38.282 83.478,-38.282C83.478,-38.282 -40.639,-44.574 -193.317,-12.856C-177.115,-174.338 -359.693,-158.256 -359.693,-158.256L-359.693,-99.33C-319.531,-95.256 -286.656,-49.111 -298.312,-13.328C-301.245,-4.322 -305.113,6.302 -309.576,18.103C-332.54,25.676 -355.601,34.187 -378.496,43.879L-401.868,99.953C-378.208,89.508 -354.302,80.294 -330.441,72.065C-360.673,150.138 -397.749,250.848 -397.749,323.38C-397.749,598.055 -202.968,822.545 68.747,831.055L68.747,831.351L79.413,831.351L79.413,831.388C80.382,831.394 81.333,831.461 82.304,831.461C82.708,831.461 83.102,831.432 83.505,831.431C83.908,831.432 84.302,831.461 84.706,831.461C85.677,831.461 86.627,831.394 87.597,831.388L87.597,831.351L98.263,831.351L98.263,831.055C369.978,822.545 564.759,598.055 564.759,323.38" style="fill:rgb(166,141,103);fill-rule:nonzero;"/>
        </g>
        <g transform="matrix(1,0,0,1,1544.1323,1493.2792)">
            <path d="M0,-507.996C-3.622,-507.237 -2.141,-507.548 -5.763,-506.789C7.022,-394.774 -11.24,-288.446 -60.017,-197.329C-117.667,-89.636 -216.337,-29.315 -262.94,-5.544C-261.627,-2.263 -262.035,-3.281 -260.722,0C79.191,-86.816 28.623,-399.743 0,-507.996" style="fill:rgb(166,141,103);fill-rule:nonzero;"/>
        </g>
        <g transform="matrix(1,0,0,1,560.8921,1182.6122)">
            <path d="M0,113.338C-48.777,22.221 -67.039,-84.107 -54.253,-196.122C-57.875,-196.88 -56.395,-196.57 -60.016,-197.329C-88.64,-89.075 -139.207,223.851 200.706,310.667C202.019,307.386 201.611,308.404 202.924,305.123C156.32,281.352 57.65,221.031 0,113.338" style="fill:rgb(166,141,103);fill-rule:nonzero;"/>
        </g>
    </g>
</svg>
