<?xml version="1.0" encoding="UTF-8" standalone="no"?>
<!DOCTYPE svg PUBLIC "-//W3C//DTD SVG 1.1//EN" "http://www.w3.org/Graphics/SVG/1.1/DTD/svg11.dtd">
<svg width="100%" height="100%" viewBox="1588 1594 5157 5165" version="1.1" xmlns="http://www.w3.org/2000/svg" xmlns:xlink="http://www.w3.org/1999/xlink" xml:space="preserve" xmlns:serif="http://www.serif.com/" style="fill-rule:evenodd;clip-rule:evenodd;stroke-linejoin:round;stroke-miterlimit:2;">
    <g id="Icons" transform="matrix(4.166667,0,0,4.166667,0,0)">
        <g transform="matrix(1,0,0,1,1114.1724,1601.4295)">
            <path d="M0,-234.222L-4.207,-242.422C-48.021,-228.519 -90.034,-224.64 -125.392,-225.199C-155.426,-226.514 -189.122,-231.312 -224.138,-242.422L-228.345,-234.222C-228.345,-234.222 -117.606,-158.881 -117.606,8.2L-109.948,8.2C-109.948,-158.881 0,-234.222 0,-234.222" style="fill:rgb(166,141,103);fill-rule:nonzero;"/>
        </g>
        <g transform="matrix(1,0,0,1,635.5996,888.3088)">
            <path d="M0,228.345L8.2,224.138C-5.703,180.324 -9.582,138.311 -9.023,102.953C-7.708,72.919 -2.91,39.223 8.2,4.207L0,0C0,0 -75.341,110.739 -242.422,110.739L-242.422,118.397C-75.341,118.397 0,228.345 0,228.345" style="fill:rgb(166,141,103);fill-rule:nonzero;"/>
        </g>
        <g transform="matrix(1,0,0,1,1364.4004,1116.6536)">
            <path d="M0,-228.345L-8.2,-224.138C5.703,-180.324 9.582,-138.311 9.023,-102.953C7.708,-72.919 2.91,-39.223 -8.2,-4.207L0,0C0,0 75.341,-110.739 242.422,-110.739L242.422,-118.397C75.341,-118.397 0,-228.345 0,-228.345" style="fill:rgb(166,141,103);fill-rule:nonzero;"/>
        </g>
        <g transform="matrix(0,1,1,0,624.8803,887.2565)">
            <path d="M-103.34,241.672L-15.46,241.672L-15.46,160.3L-329.551,-103.34L-103.34,241.672Z" style="fill:rgb(166,141,103);fill-rule:nonzero;"/>
        </g>
        <g transform="matrix(1,0,0,1,778.6714,1478.7879)">
            <path d="M0,-345.012L87.88,-345.012L87.88,-263.641L-226.211,0L0,-345.012Z" style="fill:rgb(166,141,103);fill-rule:nonzero;"/>
        </g>
        <g transform="matrix(1,0,0,1,1296.4775,1094.9384)">
            <path d="M0,-184.915L-37.835,-165.081L-223.854,-165.081L-223.854,-351.1L-204.02,-388.935C-204.02,-388.935 -231.178,-398.089 -296.478,-398.089C-350.793,-398.089 -388.935,-388.935 -388.935,-388.935L-369.101,-351.1L-369.101,-165.081L-555.12,-165.081L-592.955,-184.915C-592.955,-184.915 -602.109,-157.758 -602.109,-92.457C-602.109,-38.143 -592.955,-0 -592.955,-0L-555.12,-19.834L-369.101,-19.834L-369.101,166.185L-388.935,204.02C-388.935,204.02 -361.778,213.174 -296.478,213.174C-242.163,213.174 -204.02,204.02 -204.02,204.02L-223.854,166.185L-223.854,-19.834L-37.835,-19.834L0,-0C0,-0 9.154,-27.158 9.154,-92.457C9.154,-146.773 0,-184.915 0,-184.915" style="fill:rgb(166,141,103);fill-rule:nonzero;"/>
        </g>
        <g transform="matrix(0,1,1,0,1236.466,542.2445)">
            <path d="M241.672,-103.34L329.552,-103.34L329.552,-21.969L15.461,241.672L241.672,-103.34Z" style="fill:rgb(166,141,103);fill-rule:nonzero;"/>
        </g>
        <g transform="matrix(-1,0,0,1,1359.3369,1478.7879)">
            <path d="M138.331,-345.012L226.211,-345.012L226.211,-263.641L-87.88,0L138.331,-345.012Z" style="fill:rgb(166,141,103);fill-rule:nonzero;"/>
        </g>
        <g transform="matrix(1,0,0,1,885.8276,402.841)">
            <path d="M0,234.223L4.207,242.422C48.021,228.52 90.034,224.641 125.392,225.2C155.426,226.515 189.122,231.312 224.138,242.422L228.345,234.223C228.345,234.223 117.606,158.882 117.606,-8.199L109.948,-8.199C109.948,158.882 0,234.223 0,234.223" style="fill:rgb(166,141,103);fill-rule:nonzero;"/>
        </g>
    </g>
</svg>
