<?xml version="1.0" encoding="UTF-8" standalone="no"?>
<!DOCTYPE svg PUBLIC "-//W3C//DTD SVG 1.1//EN" "http://www.w3.org/Graphics/SVG/1.1/DTD/svg11.dtd">
<svg width="100%" height="100%" viewBox="0 0 3887 4964" version="1.1" xmlns="http://www.w3.org/2000/svg" xmlns:xlink="http://www.w3.org/1999/xlink" xml:space="preserve" xmlns:serif="http://www.serif.com/" style="fill-rule:evenodd;clip-rule:evenodd;stroke-linejoin:round;stroke-miterlimit:2;">
    <g transform="matrix(1,0,0,1,-2278.39125,-1684.675)">
        <g id="Icons" transform="matrix(4.166667,0,0,4.166667,0,0)">
            <g transform="matrix(1,0,0,1,977.8799,1097.793)">
                <path d="M0,-195.586C0,-195.586 23.198,-298.231 32.172,-389.164L38.433,-389.164C47.406,-298.232 70.605,-195.586 70.605,-195.586C137.494,75.193 35.302,297.058 35.302,297.058C35.302,297.058 -66.89,75.193 0,-195.586M-104.978,-170.982C-129.543,-106.107 -205.299,145.573 0,358.201L29.1,497.885L41.504,497.885L70.605,358.201C275.902,145.573 200.147,-106.107 175.581,-170.982C178.745,-172.596 177.947,-172.189 181.11,-173.803C419.616,94.306 126.347,358.201 126.347,358.201C449.646,190.493 501.671,-26.253 501.671,-26.253L390.188,-26.253C455.22,-143.421 431.732,-352.529 431.732,-352.529L280.759,-346.721L254.425,-308.323C187.535,-472.538 35.302,-693.471 35.302,-693.471C35.302,-693.471 -116.931,-472.538 -183.82,-308.323L-210.155,-346.721L-361.128,-352.529C-361.128,-352.529 -384.615,-143.421 -319.584,-26.253L-431.066,-26.253C-431.066,-26.253 -379.041,190.493 -55.742,358.201C-55.742,358.201 -349.012,94.306 -110.507,-173.803C-107.343,-172.189 -108.142,-172.596 -104.978,-170.982" style="fill:rgb(166,141,103);fill-rule:nonzero;"/>
            </g>
            <g transform="matrix(0.742058,0.670336,0.670336,-0.742058,604.02749,586.744026)">
                <path d="M101.081,-37.176C101.081,-37.176 31.919,76.781 83.598,259.173C93.328,258.375 91.352,258.537 101.081,257.741C106.459,205.795 122.853,116.334 172.395,19.005L101.081,-37.176Z" style="fill:rgb(166,141,103);fill-rule:nonzero;"/>
            </g>
            <g transform="matrix(1,0,0,1,890.7217,1241.5711)">
                <path d="M0,250.55C0,250.55 -142.296,263.929 -245.784,172.709C-245.784,172.709 -309.17,121.626 -310.464,-13.379C-310.464,-13.379 -256.133,162.363 0,250.55" style="fill:rgb(166,141,103);fill-rule:nonzero;"/>
            </g>
            <g transform="matrix(-0.928471,0.371405,0.371405,0.928471,1398.173487,647.450986)">
                <path d="M123.306,-261.489C11.584,-108.338 36.935,22.532 36.935,22.532L123.306,-5.432C110.59,-113.902 126.238,-203.496 139.208,-254.084C130.357,-258.204 132.156,-257.368 123.306,-261.489" style="fill:rgb(166,141,103);fill-rule:nonzero;"/>
            </g>
            <g transform="matrix(1,0,0,1,1446.1064,1505.5004)">
                <path d="M0,-277.308C-1.294,-142.303 -64.68,-91.22 -64.68,-91.22C-168.168,0 -310.464,-13.379 -310.464,-13.379C-54.331,-101.566 0,-277.308 0,-277.308" style="fill:rgb(166,141,103);fill-rule:nonzero;"/>
            </g>
        </g>
    </g>
</svg>
