<?xml version="1.0" encoding="UTF-8" standalone="no"?>
<!DOCTYPE svg PUBLIC "-//W3C//DTD SVG 1.1//EN" "http://www.w3.org/Graphics/SVG/1.1/DTD/svg11.dtd">
<svg width="100%" height="100%" viewBox="0 0 4610 4342" version="1.1" xmlns="http://www.w3.org/2000/svg" xmlns:xlink="http://www.w3.org/1999/xlink" xml:space="preserve" xmlns:serif="http://www.serif.com/" style="fill-rule:evenodd;clip-rule:evenodd;stroke-linejoin:round;stroke-miterlimit:2;">
    <g transform="matrix(1,0,0,1,-1921.285443,-1995.713002)">
        <g id="Icons" transform="matrix(4.166667,0,0,4.166667,0,0)">
            <g transform="matrix(1,0,0,1,543.4961,1298.9857)">
                <path d="M0,-398.035C-11.71,-356.178 -18.108,-312.125 -18.108,-266.58C-18.108,-168.273 11.175,-76.724 61.331,0L110.963,-49.632L151.708,-90.378C122.709,-142.637 106.133,-202.699 106.133,-266.58C106.133,-274.792 106.505,-282.915 107.042,-290.993L0,-398.035Z" style="fill:rgb(166,141,103);fill-rule:nonzero;"/>
            </g>
            <g transform="matrix(1,0,0,1,988.2002,543.7731)">
                <path d="M0,125.266C8.536,124.665 17.124,124.25 25.811,124.25C34.212,124.25 42.52,124.64 50.78,125.202L157.738,18.244C115.74,6.448 71.527,0 25.811,0C-20.161,0 -64.613,6.52 -106.822,18.444L0,125.266Z" style="fill:rgb(166,141,103);fill-rule:nonzero;"/>
            </g>
            <g transform="matrix(0.004986,0.999988,0.999988,-0.004986,840.008305,1001.472993)">
                <path d="M30.777,-30.445C49.393,-30.538 67.352,-27.922 84.513,-23.342L30.777,30.93L-23.369,-22.679C-6.111,-27.514 11.987,-30.352 30.777,-30.445" style="fill:rgb(166,141,103);fill-rule:nonzero;"/>
            </g>
            <g transform="matrix(-0.003915,-0.999992,-0.999992,0.003915,989.284183,804.729654)">
                <path d="M-31.056,-78.304C-26.324,-61.184 -23.548,-43.25 -23.475,-24.635C-23.4,-5.423 -26.167,13.104 -31.056,30.751L-85.581,-23.35L-31.056,-78.304Z" style="fill:rgb(166,141,103);fill-rule:nonzero;"/>
            </g>
            <g transform="matrix(1,0,0,1,1178.5469,1009.4429)">
                <path d="M0,46.355L31.961,78.316C36.92,60.689 39.759,42.171 39.759,22.959C39.759,3.904 36.953,-14.463 32.073,-31.961L-23.121,23.233L-0.063,46.291L0,46.355Z" style="fill:rgb(166,141,103);fill-rule:nonzero;"/>
            </g>
            <g transform="matrix(-0.001732,0.999998,0.999998,0.001732,990.351835,1151.032271)">
                <path d="M78.033,-31.126C82.883,-13.619 85.657,4.752 85.624,23.807C85.591,42.598 82.812,60.706 78.033,77.979L23.481,23.238L78.033,-31.126Z" style="fill:rgb(166,141,103);fill-rule:nonzero;"/>
            </g>
            <g transform="matrix(1,0,0,1,1195.9482,1516.8668)">
                <path d="M86.152,-76.246L-4.162,-166.56C-56.789,-137.012 -117.408,-120.079 -181.937,-120.079C-246.003,-120.079 -306.225,-136.757 -358.589,-165.913L-409.942,-114.559L-448.947,-75.554C-372.137,-25.226 -280.428,4.162 -181.937,4.162C-82.988,4.162 9.124,-25.487 86.152,-76.246Z" style="fill:rgb(166,141,103);fill-rule:nonzero;"/>
            </g>
            <g transform="matrix(1,0,0,1,1410.4561,913.3533)">
                <path d="M-0.769,371.177L13.109,385.055C63.036,308.448 92.178,217.115 92.178,119.052C92.178,73.251 85.707,28.959 73.87,-13.109L-33.036,93.797C-32.46,102.152 -32.063,110.554 -32.063,119.052C-32.063,182.687 -48.502,242.536 -77.292,294.653L-0.769,371.177Z" style="fill:rgb(166,141,103);fill-rule:nonzero;"/>
            </g>
            <g transform="matrix(-0.707107,-0.707107,-0.707107,0.707107,1511.693427,512.0673)">
                <path d="M-16.018,-38.671C35.674,-38.671 34.644,7.665 34.644,7.665C34.644,7.665 13.432,-0.16 -16.018,-0.16C-44.438,-0.16 -66.68,7.665 -66.68,7.665C-66.68,7.665 -67.71,-38.672 -16.018,-38.671" style="fill:rgb(166,141,103);fill-rule:nonzero;"/>
            </g>
            <g transform="matrix(1,0,0,1,1060.7803,970.7807)">
                <path d="M0,25.338L-14.417,29.27L-10.485,14.853L205.328,-200.96L215.812,-190.475L0,25.338ZM473.856,-175.913L389.687,-168.632C375.82,-198.098 354.084,-227.256 335.685,-249.185L477.644,-391.144C477.644,-391.144 468.178,-411.676 447.354,-432.501C430.897,-448.956 405.997,-462.79 405.997,-462.79L264.038,-320.831C242.108,-339.231 212.95,-360.968 183.484,-374.834L190.766,-459.004L174.747,-458.713L14.307,-298.272C14.307,-298.272 79.68,-292.599 156.377,-243.461L-433.957,346.873L-473.275,488.128L-332.021,448.81L258.313,-141.525C304.773,-70.387 312.651,-1.036 312.651,-1.036L473.565,-159.894L473.856,-175.913Z" style="fill:rgb(166,141,103);fill-rule:nonzero;"/>
            </g>
            <g transform="matrix(-0.707107,-0.707107,-0.707107,0.707107,443.542674,488.383719)">
                <path d="M-76.253,-69.738C-76.253,-69.738 -29.917,-70.768 -29.917,-19.077C-29.917,32.615 -76.253,31.585 -76.253,31.585C-76.253,31.585 -68.429,9.343 -68.429,-19.077C-68.429,-48.526 -76.253,-69.738 -76.253,-69.738" style="fill:rgb(166,141,103);fill-rule:nonzero;"/>
            </g>
            <g transform="matrix(1,0,0,1,937.7227,553.7153)">
                <path d="M0,412.355L-185.765,226.59L-175.28,216.105L10.485,401.87L56.211,356.144L-126.329,173.605C-49.631,124.467 15.741,118.793 15.741,118.793L-144.699,-41.647L-160.718,-41.939L-153.437,42.231C-182.902,56.097 -212.061,77.834 -233.99,96.234L-375.948,-45.726C-375.948,-45.726 -400.85,-31.891 -417.305,-15.435C-438.13,5.389 -447.596,25.921 -447.596,25.921L-305.636,167.88C-324.035,189.809 -345.772,218.968 -359.639,248.433L-443.809,241.152L-443.518,257.171L-282.604,416.029C-282.604,416.029 -274.726,346.678 -228.266,275.541L-45.726,458.081L-45.203,457.559L0,412.355Z" style="fill:rgb(166,141,103);fill-rule:nonzero;"/>
            </g>
            <g transform="matrix(1,0,0,1,1441.0459,1051.8652)">
                <path d="M0,407.043L-39.318,265.789L-305.107,0L-390.542,85.435L-391.311,86.203L-407.044,101.936L-141.255,367.725L0,407.043Z" style="fill:rgb(166,141,103);fill-rule:nonzero;"/>
            </g>
        </g>
    </g>
</svg>
