<?xml version="1.0" encoding="UTF-8" standalone="no"?>
<!DOCTYPE svg PUBLIC "-//W3C//DTD SVG 1.1//EN" "http://www.w3.org/Graphics/SVG/1.1/DTD/svg11.dtd">
<svg width="100%" height="100%" viewBox="0 0 3951 4965" version="1.1" xmlns="http://www.w3.org/2000/svg" xmlns:xlink="http://www.w3.org/1999/xlink" xml:space="preserve" xmlns:serif="http://www.serif.com/" style="fill-rule:evenodd;clip-rule:evenodd;stroke-linejoin:round;stroke-miterlimit:2;">
    <g transform="matrix(1,0,0,1,-2255.207917,-1684.5325)">
        <g id="Icons" transform="matrix(4.166667,0,0,4.166667,0,0)">
            <g transform="matrix(1,0,0,1,1016.9463,629.3138)">
                <path d="M0,-213.637C0,-213.637 -34.56,-225.026 -66.081,-225.026C-93.975,-225.026 -131.545,-213.637 -131.545,-213.637L-131.545,11.389L0,11.389L0,-213.637Z" style="fill:rgb(166,141,103);fill-rule:nonzero;"/>
            </g>
            <g transform="matrix(1,0,0,1,859.1885,640.7028)">
                <path d="M0,-169.571L-121.896,-123.389C-127.597,-121.229 -131.324,-116.07 -131.324,-110.34L-131.324,0L0,0L0,-169.571Z" style="fill:rgb(166,141,103);fill-rule:nonzero;"/>
            </g>
            <g transform="matrix(1,0,0,1,1170.0479,470.167)">
                <path d="M0,251.125L0,12.477C0,6.28 -4.349,0.811 -10.716,-0.998L-126.89,-34.01L-126.89,285.135L-15.352,267.974C-6.495,266.61 0,259.481 0,251.125" style="fill:rgb(166,141,103);fill-rule:nonzero;"/>
            </g>
            <g transform="matrix(1,0,0,1,1323.1484,581.4852)">
                <path d="M0,133.341L0,17.074C0,11.344 -3.728,6.185 -9.429,4.025L-126.889,-40.476L-126.889,173.817L-14.277,149.992C-5.926,148.226 0,141.314 0,133.341" style="fill:rgb(166,141,103);fill-rule:nonzero;"/>
            </g>
            <g transform="matrix(1,0,0,1,1035.5928,1209.9678)">
                <path d="M0,-156.667L-18.646,0.737L-37.293,-156.667L-160.583,-133.063L-18.646,-202.01L123.29,-133.063L0,-156.667ZM194.644,-118.976C236.599,-153.682 263.005,-201.805 268.624,-253.794L283.122,-428.986L-9.082,-428.986L44.653,-288.718L-42.747,-388.743L-183.173,-388.743L-226.851,-415.808L-92.399,-415.808C-51.672,-415.808 -18.657,-446.542 -18.646,-484.459L-18.646,-542.411L-304.437,-542.411C-332.7,-508.984 -338.139,-494.685 -366.4,-461.257L-314.511,-235.7C-303.794,-194.41 -279.771,-157.159 -245.662,-128.944L-238.224,-122.791L-116.022,251.449L-79.662,18.266L-18.646,385.744L42.658,16.759L80.249,251.449L194.644,-118.976Z" style="fill:rgb(166,141,103);fill-rule:nonzero;"/>
            </g>
            <g transform="matrix(1,0,0,1,1381.7793,1347.0352)">
                <path d="M0,69.164C-5.469,79.685 -13.444,88.846 -23.335,94.739C-17.479,84.875 -12.802,75.193 -9.769,65.122C-6.693,55.099 -5.162,44.844 -5.162,34.582C-5.165,32.734 -5.234,30.887 -5.336,29.04C-5.694,29.31 -6.063,29.566 -6.455,29.793C-15.454,34.988 -30.066,26.525 -39.092,10.892C-48.119,-4.743 -48.142,-21.629 -39.143,-26.824C-34.746,-29.362 -29.008,-28.633 -23.236,-25.405C-23.27,-25.462 -23.301,-25.518 -23.335,-25.575C-13.434,-19.693 -5.449,-10.531 0.018,-0.007C5.473,10.549 8.344,22.566 8.328,34.582C8.326,46.597 5.455,58.61 0,69.164M-148.691,-40.074C-189.924,1.157 -189.924,68.007 -148.691,109.238C-107.461,150.471 -40.61,150.471 0.621,109.238C41.853,68.007 41.853,1.157 0.621,-40.074C-40.61,-81.307 -107.461,-81.307 -148.691,-40.074" style="fill:rgb(166,141,103);fill-rule:nonzero;"/>
            </g>
            <g transform="matrix(1,0,0,1,1438.543,1106.4116)">
                <path d="M0,120.315C5.855,110.452 10.533,100.77 13.566,90.698C16.641,80.674 18.173,70.42 18.173,60.159C18.169,58.056 18.086,55.955 17.954,53.855C17.453,54.278 16.917,54.659 16.344,54.99C7.345,60.185 -7.268,51.722 -16.293,36.088C-25.32,20.454 -25.343,3.569 -16.344,-1.626C-11.828,-4.234 -5.898,-3.4 0.029,0.053L0,0.001C9.901,5.883 17.886,15.044 23.352,25.569C28.807,36.126 31.679,48.143 31.662,60.158C31.66,72.172 28.79,84.186 23.335,94.741C17.865,105.26 9.89,114.422 0,120.315M-43.072,-33.689C-94.902,-33.689 -136.92,8.328 -136.92,60.158C-136.92,111.989 -94.902,154.004 -43.072,154.004C8.758,154.004 50.775,111.989 50.775,60.158C50.775,8.328 8.758,-33.689 -43.072,-33.689" style="fill:rgb(166,141,103);fill-rule:nonzero;"/>
            </g>
            <g transform="matrix(1,0,0,1,1366.4082,1025.7257)">
                <path d="M0,-107.298C3.686,-110.097 9.518,-109.095 15.174,-105.305C22.647,-100.819 29.024,-94.298 33.75,-86.599C39.361,-77.429 42.491,-66.49 42.471,-55.502C42.473,-44.515 39.345,-33.581 33.733,-24.413C28.107,-15.258 20.165,-7.754 10.809,-3.364C13.593,-7.732 16.227,-11.901 18.477,-16.173C20.74,-20.427 22.685,-24.708 24.234,-29.053C27.369,-37.721 28.977,-46.607 28.981,-55.502C28.967,-61.206 28.293,-66.903 26.99,-72.543C26.869,-72.44 26.765,-72.32 26.637,-72.224C21.062,-67.989 10.58,-72.409 3.225,-82.095C-4.131,-91.78 -5.575,-103.064 0,-107.298M36.924,-0.761C67.158,-30.996 67.158,-80.017 36.924,-110.253C19.253,-127.923 -4.833,-135.248 -27.838,-132.263L-37.207,-39.126C-39.089,-20.43 -43.385,-2.271 -49.876,14.977C-21.339,27.95 13.451,22.712 36.924,-0.761" style="fill:rgb(166,141,103);fill-rule:nonzero;"/>
            </g>
            <g transform="matrix(1,0,0,1,630.4092,1007.78)">
                <path d="M0,-68.653C4.684,-76.283 10.988,-82.757 18.376,-87.239C24.088,-91.13 30.005,-92.181 33.731,-89.352C39.306,-85.118 37.861,-73.835 30.505,-64.149C23.149,-54.464 12.667,-50.044 7.093,-54.278C6.972,-54.37 6.872,-54.484 6.757,-54.583C5.456,-48.948 4.783,-43.256 4.769,-37.556C4.772,-28.661 6.381,-19.775 9.517,-11.107C11.065,-6.762 13.011,-2.481 15.274,1.773C17.523,6.045 20.157,10.214 22.941,14.581C13.585,10.192 5.642,2.688 0.017,-6.467C-5.595,-15.635 -8.723,-26.569 -8.721,-37.556C-8.741,-48.545 -5.611,-59.483 0,-68.653M76.802,35.644C71.514,23.78 67.278,11.382 64.179,-1.443L37.075,-113.615C22.329,-110.818 8.239,-103.719 -3.174,-92.307C-33.409,-62.071 -33.409,-13.05 -3.174,17.185C18.457,38.816 49.699,44.962 76.802,35.644" style="fill:rgb(166,141,103);fill-rule:nonzero;"/>
            </g>
            <g transform="matrix(1,0,0,1,687.4814,1405.3078)">
                <path d="M0,-47.381C-9.026,-31.747 -23.638,-23.284 -32.636,-28.48C-32.89,-28.626 -33.134,-28.784 -33.373,-28.949C-33.465,-27.197 -33.528,-25.444 -33.532,-23.691C-33.532,-13.429 -32,-3.174 -28.925,6.849C-25.892,16.921 -21.214,26.602 -15.358,36.467C-25.249,30.573 -33.226,21.412 -38.694,10.891C-44.149,0.338 -47.019,-11.676 -47.021,-23.691C-47.038,-35.706 -44.165,-47.724 -38.71,-58.279C-34.831,-65.749 -29.678,-72.525 -23.476,-77.937C-15.464,-85.613 -6.306,-88.767 0.052,-85.097C9.05,-79.902 9.026,-63.016 0,-47.381M-39.314,-98.347C-80.546,-57.115 -80.546,9.734 -39.314,50.966C1.917,92.198 68.767,92.198 109.999,50.966C151.23,9.734 151.23,-57.115 109.999,-98.347C68.767,-139.579 1.917,-139.579 -39.314,-98.347" style="fill:rgb(166,141,103);fill-rule:nonzero;"/>
            </g>
            <g transform="matrix(1,0,0,1,607.9189,1190.639)">
                <path d="M0,-48.139C-9.026,-32.505 -23.638,-24.042 -32.636,-29.238C-33.069,-29.488 -33.475,-29.773 -33.866,-30.075C-33.985,-28.075 -34.063,-26.073 -34.067,-24.069C-34.067,-13.807 -32.535,-3.553 -29.46,6.47C-26.427,16.543 -21.749,26.224 -15.894,36.088C-25.784,30.195 -33.761,21.033 -39.229,10.513C-44.685,-0.041 -47.555,-12.055 -47.557,-24.07C-47.573,-36.084 -44.701,-48.102 -39.246,-58.659C-35.083,-66.675 -29.454,-73.897 -22.634,-79.485C-14.829,-86.585 -6.084,-89.397 0.052,-85.854C9.05,-80.659 9.026,-63.774 0,-48.139M121.024,-24.07C121.024,-75.9 79.009,-117.916 27.178,-117.916C-24.653,-117.916 -66.669,-75.9 -66.669,-24.07C-66.669,27.761 -24.653,69.777 27.178,69.777C79.009,69.777 121.024,27.761 121.024,-24.07" style="fill:rgb(166,141,103);fill-rule:nonzero;"/>
            </g>
        </g>
    </g>
</svg>
