<?xml version="1.0" encoding="UTF-8" standalone="no"?>
<!DOCTYPE svg PUBLIC "-//W3C//DTD SVG 1.1//EN" "http://www.w3.org/Graphics/SVG/1.1/DTD/svg11.dtd">
<svg width="100%" height="100%" viewBox="0 0 5176 4732" version="1.1" xmlns="http://www.w3.org/2000/svg" xmlns:xlink="http://www.w3.org/1999/xlink" xml:space="preserve" xmlns:serif="http://www.serif.com/" style="fill-rule:evenodd;clip-rule:evenodd;stroke-linejoin:round;stroke-miterlimit:2;">
    <g transform="matrix(1,0,0,1,-1578.974311,-1800.7)">
        <g transform="matrix(4.166667,0,0,4.166667,6742.80375,6532.633333)">
            <g id="Icons">
                <path d="M0,-1135.664L-293.131,-646.006L-273.41,-720.437C-273.41,-720.437 -325.511,-835.805 -492.981,-971.021L-523.994,-975.983L-523.994,-696.868L-553.766,-722.918L-553.766,-992.11L-530.196,-1002.034L-618.273,-1056.617L-706.35,-1002.034L-682.78,-992.11L-682.78,-722.918L-712.552,-696.868L-712.552,-975.983L-743.565,-971.021C-911.035,-835.805 -963.136,-720.437 -963.136,-720.437L-943.415,-646.006L-1236.546,-1135.664C-1239.016,-1085.92 -1240.708,-1019.013 -1237.745,-949.325L-1088.055,-747.131C-1090.863,-744.872 -1089.627,-745.866 -1092.435,-743.608L-1235.375,-902.479C-1231.742,-851.284 -1225.219,-805.21 -1214.26,-759.882L-1079.34,-635.655C-1081.592,-632.916 -1080.655,-634.055 -1082.907,-631.316L-1202.831,-714.106C-1189.088,-670.712 -1170.287,-632.138 -1146.378,-589.466C-1140.991,-581.527 -1137.635,-576.951 -1137.635,-576.951L-1029.783,-512.753C-1031.322,-509.643 -1030.731,-510.836 -1032.27,-507.725L-1118.201,-537.231C-1078.233,-478.607 -1022.43,-420.711 -960.655,-370.612L-960.655,-271.926C-960.655,-255.494 -964.887,-239.339 -972.943,-225.018L-994.149,-187.318L-687.742,0L-672.855,-500.866L-809.312,-500.866C-875.06,-546.765 -881.262,-612.513 -881.262,-612.513L-690.223,-612.513C-697.995,-625.231 -694.978,-641.757 -683.212,-650.908L-677.818,-655.103L-618.273,-556.276L-558.728,-655.103L-553.333,-650.908C-541.568,-641.757 -538.551,-625.231 -546.323,-612.513L-355.284,-612.513C-355.284,-612.513 -361.486,-546.765 -427.233,-500.866L-563.69,-500.866L-548.804,0L-242.397,-187.318L-263.603,-225.018C-271.659,-239.339 -275.891,-255.494 -275.891,-271.926L-275.891,-370.612C-214.116,-420.711 -158.313,-478.607 -118.345,-537.231L-204.276,-507.725C-205.814,-510.836 -205.224,-509.643 -206.763,-512.753L-98.911,-576.951C-98.911,-576.951 -95.555,-581.527 -90.168,-589.466C-66.259,-632.138 -47.458,-670.712 -33.715,-714.106L-153.639,-631.316C-155.891,-634.055 -154.954,-632.916 -157.206,-635.655L-22.286,-759.882C-11.327,-805.21 -4.804,-851.284 -1.17,-902.479L-144.111,-743.608C-146.919,-745.866 -145.683,-744.872 -148.491,-747.131L1.199,-949.325C4.162,-1019.013 2.47,-1085.92 0,-1135.664" style="fill:rgb(166,141,103);fill-rule:nonzero;"/>
            </g>
        </g>
    </g>
</svg>
