<?xml version="1.0" encoding="UTF-8" standalone="no"?>
<!DOCTYPE svg PUBLIC "-//W3C//DTD SVG 1.1//EN" "http://www.w3.org/Graphics/SVG/1.1/DTD/svg11.dtd">
<svg width="100%" height="100%" viewBox="1909 1683 4704 4988" version="1.1" xmlns="http://www.w3.org/2000/svg" xmlns:xlink="http://www.w3.org/1999/xlink" xml:space="preserve" xmlns:serif="http://www.serif.com/" style="fill-rule:evenodd;clip-rule:evenodd;stroke-linejoin:round;stroke-miterlimit:2;">
    <g id="Icons" transform="matrix(4.166667,0,0,4.166667,0,0)">
        <g transform="matrix(1,0,0,1,1077.6489,1315.4104)">
            <path d="M0,-626.55C0.407,-632.522 6.869,-635.838 11.708,-632.558L61.294,-598.946C64.132,-601.343 63.998,-601.229 66.835,-603.626L-53.449,-895.707L-53.449,-899.633L-54.202,-897.67L-54.956,-899.633L-54.956,-895.707L-175.241,-603.626C-172.403,-601.229 -172.538,-601.343 -169.7,-598.946L-120.113,-632.558C-115.274,-635.838 -108.812,-632.522 -108.405,-626.55L-67.181,161.697L-137.843,261.131C-133.228,267.362 -133.605,266.852 -128.99,273.083L-54.203,242.93L20.584,273.083C25.2,266.852 24.822,267.362 29.437,261.131L-41.224,161.697L0,-626.55Z" style="fill:rgb(166,141,103);fill-rule:nonzero;"/>
        </g>
        <g transform="matrix(1,0,0,1,1117.9307,1380.687)">
            <path d="M0,-612.435C-2.557,-611.995 -2.259,-612.046 -4.817,-611.606L-23.965,-401.342C29.021,-391.516 71.887,-372.656 106.637,-348.777L-32.131,47.708L-18.373,53.756L153.421,-309.04C234.884,-224.603 251.156,-112.668 255.442,-82.583L-32.023,115.729L-15.215,137.903L457.072,-172.454L455.31,-191.537L325.319,-271.786C306.177,-324.386 268.769,-382.502 211.297,-431.265L262.171,-538.699C264.205,-542.824 269.775,-543.162 272.262,-539.312L297.748,-499.86C300.469,-500.678 300.34,-500.639 303.061,-501.457L302.753,-747.071L303.9,-749.866L302.791,-748.705L302.828,-750.338L301.681,-747.542L130.699,-577.225C132.02,-574.63 131.957,-574.753 133.277,-572.159L178.404,-580.571C182.808,-581.392 186.44,-577.008 184.984,-572.628L150.565,-474.286C118.087,-493.349 81.247,-509.438 39.765,-521.033L39.77,-521.042L0,-612.435Z" style="fill:rgb(166,141,103);fill-rule:nonzero;"/>
        </g>
        <g transform="matrix(1,0,0,1,959.8643,652.5064)">
            <path d="M0,844.436L-288.229,645.598C-283.942,615.512 -267.672,503.578 -186.208,419.14L-14.415,781.936L-0.656,775.889L-139.424,379.404C-104.675,355.524 -61.809,336.665 -8.823,326.839L-8.823,326.838L-8.822,326.839L-27.971,116.574C-30.527,116.134 -30.23,116.186 -32.787,115.746L-72.557,207.139L-72.552,207.148C-114.034,218.743 -150.874,234.832 -183.353,253.894L-217.772,155.552C-219.227,151.173 -215.595,146.789 -211.191,147.61L-166.064,156.022C-164.744,153.427 -164.807,153.55 -163.486,150.956L-334.468,-19.362L-335.615,-22.157L-335.578,-20.524L-336.687,-21.686L-335.54,-18.891L-335.848,226.723C-333.127,227.541 -333.256,227.502 -330.535,228.321L-305.049,188.868C-302.562,185.019 -296.992,185.357 -294.958,189.481L-244.084,296.916C-301.556,345.678 -338.964,403.795 -358.106,456.394L-488.097,536.644L-489.859,555.727L-16.796,866.593L0,844.436Z" style="fill:rgb(166,141,103);fill-rule:nonzero;"/>
        </g>
    </g>
</svg>
