<?xml version="1.0" encoding="UTF-8" standalone="no"?>
<!DOCTYPE svg PUBLIC "-//W3C//DTD SVG 1.1//EN" "http://www.w3.org/Graphics/SVG/1.1/DTD/svg11.dtd">
<svg width="100%" height="100%" viewBox="0 0 4712 4834" version="1.1" xmlns="http://www.w3.org/2000/svg" xmlns:xlink="http://www.w3.org/1999/xlink" xml:space="preserve" xmlns:serif="http://www.serif.com/" style="fill-rule:evenodd;clip-rule:evenodd;stroke-linejoin:round;stroke-miterlimit:2;">
    <g transform="matrix(1,0,0,1,-1810.802917,-1750.034167)">
        <g id="Icons" transform="matrix(4.166667,0,0,4.166667,0,0)">
            <g transform="matrix(1,0,0,1,1000,420.0082)">
                <path d="M-0.121,208.152L0.121,208.152L102.462,110.26C102.462,110.26 85.756,41.269 0.121,0L-0.121,0C-85.756,41.269 -102.462,110.26 -102.462,110.26L-0.121,208.152Z" style="fill:rgb(166,141,103);fill-rule:nonzero;"/>
            </g>
            <g transform="matrix(1,0,0,1,1261.8477,1182.8012)">
                <path d="M0,-173.309C-76.389,-227.969 -120.158,-187.444 -141.683,-151.58C-141.777,-151.423 -141.993,-151.528 -141.954,-151.706L-116.171,-269.641C-116.153,-269.723 -116.126,-269.779 -116.205,-269.806C-118.375,-270.557 -174.668,-289.77 -230.386,-282.7C-230.463,-282.689 -230.525,-282.625 -230.533,-282.548L-261.685,57.728C-261.703,57.926 -261.992,57.926 -262.011,57.728L-293.163,-282.548C-293.17,-282.625 -293.232,-282.689 -293.309,-282.7C-349.027,-289.77 -405.32,-270.557 -407.491,-269.806C-407.569,-269.779 -407.542,-269.723 -407.524,-269.641L-381.742,-151.706C-381.703,-151.528 -381.918,-151.423 -382.013,-151.58C-403.537,-187.444 -447.306,-227.969 -523.695,-173.309L-530.52,-168.425C-528.707,-219.694 -494.994,-314.305 -270.448,-314.305L-253.247,-314.305C-28.392,-314.305 5.164,-219.644 6.881,-168.385L0,-173.309ZM297.489,-35.981C258.706,15.447 192.205,-35.777 192.205,-35.777L147.128,-68.032C147.07,-68.074 147.045,-68.147 147.067,-68.214L161.226,-113.146C169.991,-140.962 183.103,-167.216 200.075,-190.935L214.822,-211.545C214.853,-211.587 214.9,-211.613 214.951,-211.615L254.731,-212.903C254.795,-212.905 254.823,-212.876 254.849,-212.935C255.405,-214.227 274.119,-258.654 229.379,-290.667L229.252,-290.758C184.87,-322.516 148.521,-290.72 147.46,-289.778C147.412,-289.735 147.449,-289.716 147.467,-289.655L159.086,-251.586C159.101,-251.538 159.093,-251.485 159.063,-251.444L144.316,-230.835C127.345,-207.118 106.728,-186.234 83.229,-168.96L45.27,-141.056C45.212,-141.014 45.135,-141.013 45.077,-141.054L29.674,-152.077C29.621,-152.115 29.597,-152.183 29.612,-152.247C77.324,-352.779 -87.731,-399.233 -191.82,-408.963C-191.899,-408.971 -191.958,-409.034 -191.964,-409.113L-203.875,-570.297C-203.885,-570.436 -204.054,-570.5 -204.153,-570.403L-261.733,-514.022C-261.797,-513.96 -261.898,-513.96 -261.962,-514.022L-319.542,-570.403C-319.642,-570.5 -319.81,-570.436 -319.82,-570.297L-331.731,-409.113C-331.737,-409.034 -331.796,-408.971 -331.875,-408.963C-435.964,-399.233 -601.019,-352.779 -553.307,-152.247C-553.292,-152.183 -553.316,-152.115 -553.37,-152.077L-568.772,-141.054C-568.83,-141.013 -568.907,-141.014 -568.965,-141.056L-606.924,-168.96C-630.423,-186.234 -651.041,-207.118 -668.012,-230.835L-682.758,-251.444C-682.788,-251.485 -682.796,-251.538 -682.782,-251.586L-671.163,-289.655C-671.144,-289.716 -671.107,-289.735 -671.155,-289.778C-672.216,-290.72 -708.565,-322.516 -752.948,-290.758L-753.075,-290.667C-797.814,-258.654 -779.101,-214.227 -778.544,-212.935C-778.519,-212.876 -778.49,-212.905 -778.426,-212.903L-738.646,-211.615C-738.595,-211.613 -738.548,-211.587 -738.518,-211.545L-723.771,-190.935C-706.798,-167.216 -693.687,-140.962 -684.921,-113.146L-670.762,-68.214C-670.741,-68.147 -670.766,-68.074 -670.823,-68.032L-715.9,-35.777C-715.9,-35.777 -782.401,15.447 -821.184,-35.981L-827.255,-29.624C-827.255,-29.624 -787.258,115.394 -668.523,30.434L-476.318,-107.098C-476.318,-107.098 -411.245,-157.17 -372.302,-108.439C-372.285,-108.417 -372.272,-108.391 -372.267,-108.365L-277.007,327.367L-286.576,336.936L-462.538,-86.374C-462.578,-86.471 -462.697,-86.505 -462.783,-86.446L-538.031,-33.892C-538.101,-33.844 -538.121,-33.749 -538.079,-33.676L-404.583,195.944C-404.483,196.116 -404.719,196.284 -404.849,196.134L-579.097,-4.325C-579.153,-4.389 -579.249,-4.4 -579.318,-4.349L-653.345,49.911C-653.429,49.972 -653.435,50.095 -653.357,50.166L-261.979,397.191L-261.716,397.191L129.662,50.166C129.74,50.095 129.734,49.972 129.65,49.911L55.623,-4.349C55.553,-4.4 55.458,-4.389 55.402,-4.325L-118.847,196.134C-118.977,196.284 -119.212,196.116 -119.112,195.944L14.383,-33.676C14.426,-33.749 14.405,-33.844 14.335,-33.892L-60.913,-86.446C-60.999,-86.505 -61.117,-86.471 -61.157,-86.374L-237.12,336.936L-246.688,327.367L-151.429,-108.365C-151.423,-108.391 -151.41,-108.417 -151.394,-108.439C-112.45,-157.17 -47.377,-107.098 -47.377,-107.098L144.828,30.434C263.562,115.394 303.56,-29.624 303.56,-29.624L297.489,-35.981Z" style="fill:rgb(166,141,103);fill-rule:nonzero;"/>
            </g>
        </g>
    </g>
</svg>
