<?xml version="1.0" encoding="UTF-8" standalone="no"?>
<!DOCTYPE svg PUBLIC "-//W3C//DTD SVG 1.1//EN" "http://www.w3.org/Graphics/SVG/1.1/DTD/svg11.dtd">
<svg width="100%" height="100%" viewBox="0 0 4184 5122" version="1.1" xmlns="http://www.w3.org/2000/svg" xmlns:xlink="http://www.w3.org/1999/xlink" xml:space="preserve" xmlns:serif="http://www.serif.com/" style="fill-rule:evenodd;clip-rule:evenodd;stroke-linejoin:round;stroke-miterlimit:2;">
    <g transform="matrix(1,0,0,1,-1846.926612,-1512.6125)">
        <g id="Icons" transform="matrix(4.166667,0,0,4.166667,0,0)">
            <g transform="matrix(1,0,0,1,1308.1318,1068.72)">
                <path d="M0,-182.343C132.714,43.017 32.23,200.161 32.23,200.161C37.641,-19.956 -100.527,-90.203 -100.527,-90.203L-100.543,-90.2C-70.756,-50.006 -52.982,0.4 -52.982,55.171C-52.982,186.447 -154.82,292.867 -280.443,292.867C-406.066,292.867 -504.679,186.41 -507.903,55.171C-509.256,0.134 -479.499,-91.172 -395.187,-177.183C-339.889,-233.596 -300.056,-293.356 -280.507,-333.159C-202.549,-491.896 -259.478,-673.321 -314.853,-705.693C-314.853,-705.693 -237.836,-529.196 -357.315,-378.957C-416.189,-304.926 -497.629,-244.895 -565.455,-182.586C-582.646,-167.645 -640.344,-100.863 -661.726,-65.277C-693.912,-11.706 -710.341,49.927 -710.341,114.997C-710.341,340.524 -521.603,523.35 -288.784,523.35C-55.964,523.35 139.085,337.903 139.085,112.377C139.085,-4.865 76.866,-129.025 0,-182.343" style="fill:rgb(166,141,103);fill-rule:nonzero;"/>
            </g>
            <g transform="matrix(1,0,0,1,1068.9365,1216.6677)">
                <path d="M0,-134.674L-43.728,-335.933L-87.455,-134.674C-89.573,-124.926 -97.341,-117.257 -107.362,-115.02L-321.008,-67.337L-107.363,-19.655C-97.341,-17.419 -89.573,-9.749 -87.455,-0.001L-43.728,201.259L0,-0.001C2.118,-9.749 9.887,-17.419 19.908,-19.655L233.553,-67.337L19.908,-115.02C9.887,-117.257 2.118,-124.926 0,-134.674" style="fill:rgb(166,141,103);fill-rule:nonzero;"/>
            </g>
            <g transform="matrix(1,0,0,1,1224.5767,860.4449)">
                <path d="M0,-79.087L-17.219,-158.337L-34.438,-79.087C-36.667,-68.823 -44.847,-60.748 -55.398,-58.393L-139.854,-39.544L-55.398,-20.695C-44.847,-18.34 -36.667,-10.264 -34.438,-0.001L-17.219,79.25L0,-0.001C2.23,-10.264 10.409,-18.34 20.96,-20.695L105.416,-39.544L20.96,-58.393C10.409,-60.748 2.23,-68.823 0,-79.087" style="fill:rgb(166,141,103);fill-rule:nonzero;"/>
            </g>
            <g transform="matrix(1,0,0,1,818.2632,1462.7941)">
                <path d="M0,-835.922C6.086,-812.01 -2.128,-785.402 -22.656,-755.671C-81.345,-670.67 -193.557,-563.97 -254.287,-443.834C-346.263,-261.884 -281.79,-75.992 -218.059,0C-218.059,0 -463.036,-159.847 -340.853,-433.583C-314.832,-491.878 -260.974,-560.958 -157.577,-650.526C-122.033,-681.315 -78.083,-719.424 -41.479,-760.31C-19.516,-784.841 -4.734,-809.499 0,-835.922" style="fill:rgb(166,141,103);fill-rule:nonzero;"/>
            </g>
        </g>
    </g>
</svg>
