<?xml version="1.0" encoding="UTF-8" standalone="no"?>
<!DOCTYPE svg PUBLIC "-//W3C//DTD SVG 1.1//EN" "http://www.w3.org/Graphics/SVG/1.1/DTD/svg11.dtd">
<svg width="100%" height="100%" viewBox="0 0 5067 5321" version="1.1" xmlns="http://www.w3.org/2000/svg" xmlns:xlink="http://www.w3.org/1999/xlink" xml:space="preserve" xmlns:serif="http://www.serif.com/" style="fill-rule:evenodd;clip-rule:evenodd;stroke-linejoin:round;stroke-miterlimit:2;">
    <g transform="matrix(1,0,0,1,-1727.10375,-1331.732083)">
        <g id="Icons" transform="matrix(4.166667,0,0,4.166667,0,0)">
            <g transform="matrix(1,0,0,1,662.4648,585.579)">
                <path d="M0,254.962L-0.078,254.939C16.19,141.97 76.841,60.553 99.943,33.026C97.926,30.517 98.293,30.972 96.274,28.463C8.751,71.021 -49.43,175.075 -49.43,175.075C-39.598,73.069 31.029,-15.236 65.64,-52.933C63.396,-55.58 64.047,-54.811 61.803,-57.457C-62.748,19.678 -144.626,148.363 -152.647,312.419L-6.854,294.028C-5.226,280.791 -2.958,267.747 0,254.962" style="fill:rgb(166,141,103);fill-rule:nonzero;"/>
            </g>
            <g transform="matrix(1,0,0,1,893.1729,1066.1307)">
                <path d="M0,-216.097L119.508,-160.436C119.508,-160.436 117.871,-132.606 88.403,-129.331L129.331,4.91L170.259,-129.331C140.791,-132.606 139.154,-160.436 139.154,-160.436L258.662,-216.097C335.06,-87.858 286.654,-22.779 228.536,9.738C197.903,26.878 163.617,35.447 129.331,35.447C95.045,35.447 60.759,26.878 30.127,9.738C-27.991,-22.779 -76.396,-87.858 0,-216.097M-18.008,172.642C-18.008,172.642 63.848,401.087 93.314,530.418L99.242,527.226C108.857,522.049 115.314,512.478 116.517,501.624L129.331,385.851L142.146,501.624C143.348,512.478 149.806,522.049 159.42,527.226L165.348,530.418C194.814,401.087 276.67,172.642 276.67,172.642C353.613,-24.699 479.75,-44.627 479.75,-44.627L737.33,-112.96C730.246,-125.105 717.468,-132.707 703.415,-133.161C600.686,-136.472 492.105,-150.639 492.105,-150.639C388.307,-163.762 376.533,-250.476 376.533,-250.476L329.057,-513.359C301.227,-673.105 363.436,-746.515 363.436,-746.515C225.92,-705.588 243.928,-476.395 243.928,-476.395L257.024,-299.589C193.323,-356.79 170.917,-436.702 164.39,-467.185C161.55,-467.174 162.071,-467.176 159.23,-467.164L129.331,-335.605L99.432,-467.164C96.591,-467.176 97.113,-467.174 94.272,-467.185C87.746,-436.702 65.339,-356.79 1.638,-299.589L14.734,-476.395C14.734,-476.395 32.742,-705.588 -104.773,-746.515C-104.773,-746.515 -42.564,-673.105 -70.395,-513.359L-117.87,-250.476C-117.87,-250.476 -129.645,-163.762 -233.443,-150.639C-233.443,-150.639 -342.023,-136.472 -444.753,-133.161C-458.806,-132.707 -471.584,-125.105 -478.668,-112.96L-221.088,-44.627C-221.088,-44.627 -94.95,-24.699 -18.008,172.642" style="fill:rgb(166,141,103);fill-rule:nonzero;"/>
            </g>
            <g transform="matrix(-0.973241,-0.229788,-0.229788,0.973241,854.452091,1007.977341)">
                <path d="M-71.972,-109.472C-26.402,-63.809 -77.946,10.229 -77.946,10.229L-71.972,11.64C0.606,-48.181 -36.25,-118.28 -36.25,-118.28L-71.972,-109.472Z" style="fill:rgb(166,141,103);fill-rule:nonzero;"/>
            </g>
            <g transform="matrix(0.578167,-0.815918,-0.815918,-0.578167,792.066713,1134.055764)">
                <path d="M-65.835,-95.805C-93.122,-132.178 -152.777,-213.763 -185.308,-258.332C-256.989,-69.905 -209.94,143.891 -65.835,289.867L-7.082,132.878C-50.991,64.751 -71.378,-15.811 -65.835,-95.805" style="fill:rgb(166,141,103);fill-rule:nonzero;"/>
            </g>
            <g transform="matrix(0,1,1,0,1042.4557,460.5079)">
                <path d="M7.06,-46.963C-34.073,-46.963 -79.502,-19.951 -79.502,-19.951C-79.502,-19.951 -34.073,7.06 7.06,7.06C39.389,7.06 133.525,-19.951 133.525,-19.951C133.525,-19.951 39.389,-46.963 7.06,-46.963" style="fill:rgb(166,141,103);fill-rule:nonzero;"/>
            </g>
            <g transform="matrix(-1,0,0,1,1152.2445,901.1923)">
                <path d="M29.059,134.651L35.199,134.651C35.199,134.651 2.047,50.75 56.889,16.78L24.148,0C24.148,0 -27.83,59.754 29.059,134.651" style="fill:rgb(166,141,103);fill-rule:nonzero;"/>
            </g>
            <g transform="matrix(1,0,0,1,1382.543,585.579)">
                <path d="M0,254.962L0.078,254.939C-16.19,141.97 -76.841,60.553 -99.943,33.026C-97.926,30.517 -98.292,30.972 -96.274,28.463C-8.751,71.021 49.43,175.075 49.43,175.075C39.599,73.069 -31.029,-15.236 -65.64,-52.933C-63.396,-55.58 -64.047,-54.811 -61.803,-57.457C62.749,19.678 144.626,148.363 152.647,312.419L6.854,294.028C5.227,280.791 2.958,267.747 0,254.962" style="fill:rgb(166,141,103);fill-rule:nonzero;"/>
            </g>
            <g transform="matrix(0.966807,-0.255507,-0.255507,-0.966807,1322.553433,1061.554442)">
                <path d="M41.104,-12.367L208.728,-12.367C122.521,-198.494 -61.221,-317.496 -262.819,-316.407C-232.479,-270.319 -176.98,-185.851 -152.478,-147.547C-75.617,-124.7 -7.31,-77.368 41.104,-12.367" style="fill:rgb(166,141,103);fill-rule:nonzero;"/>
            </g>
        </g>
    </g>
</svg>
