<?xml version="1.0" encoding="UTF-8" standalone="no"?>
<!DOCTYPE svg PUBLIC "-//W3C//DTD SVG 1.1//EN" "http://www.w3.org/Graphics/SVG/1.1/DTD/svg11.dtd">
<svg width="100%" height="100%" viewBox="0 0 4530 5141" version="1.1" xmlns="http://www.w3.org/2000/svg" xmlns:xlink="http://www.w3.org/1999/xlink" xml:space="preserve" xmlns:serif="http://www.serif.com/" style="fill-rule:evenodd;clip-rule:evenodd;stroke-linejoin:round;stroke-miterlimit:2;">
    <g transform="matrix(1,0,0,1,-2040.163333,-1591.037917)">
        <g id="Icons" transform="matrix(4.166667,0,0,4.166667,0,0)">
            <g transform="matrix(-0.987184,0.159584,0.159584,0.987184,1706.584125,1386.579435)">
                <path d="M286.082,-696.647C286.082,-696.647 196.517,-594.198 166.917,-461.136C121.847,-258.536 214.766,-81.735 286.082,-14.229C286.082,-14.229 30.948,-131.656 90.08,-429.874C122.417,-592.961 286.082,-696.647 286.082,-696.647" style="fill:rgb(166,141,103);fill-rule:nonzero;"/>
            </g>
            <g transform="matrix(1,0,0,1,1000.4238,1340.3571)">
                <path d="M0,-579.256L38.276,-537.152L-35.966,-426.149L-61.243,-415.33L-255.18,-566.497L-243.52,-659.775L-5.878,-854.424L261.558,-653.258L268.883,-513.043L262.834,-483.564L-31.897,-153.107L42.104,-56.49L8.793,259.432L-30.808,275.168L-70.566,-41.257L-173.522,-159.486L139.072,-547.359L-6.224,-675.799L-104.624,-584.36L-61.243,-537.152L0,-579.256Z" style="fill:rgb(166,141,103);fill-rule:nonzero;"/>
            </g>
            <g transform="matrix(1,0,0,1,849.7314,535.7581)">
                <path d="M0,-153.909C-28.551,-109.458 -24.084,-37.439 31.531,0L92.426,-49.825C6.77,-77.342 0,-153.909 0,-153.909" style="fill:rgb(166,141,103);fill-rule:nonzero;"/>
            </g>
            <g transform="matrix(1,0,0,1,704.3672,1307.585)">
                <path d="M0,-227.521C0,-284.193 19.87,-336.348 53.171,-377.937L53.152,-377.94C53.152,-377.94 -101.314,-305.255 -95.266,-77.499C-95.266,-77.499 -177.001,-280.273 -12.285,-517.139C-121.161,-449.091 -214.728,-289.64 -214.728,-168.331C-214.728,0.606 -100.403,147.746 61.455,216.142C67.561,220.431 71.286,222.881 71.286,222.881L-122.649,248.398L229.59,289.618L194.651,11.553C82.996,-14.413 0,-111.564 0,-227.521" style="fill:rgb(166,141,103);fill-rule:nonzero;"/>
            </g>
            <g transform="matrix(1,0,0,1,1329.6094,1028.921)">
                <path d="M0,383.996L-0.05,383.98C68.41,310.626 109.668,216.17 109.668,113.045C109.668,45.717 91.301,-18.055 55.317,-73.484C39.904,-97.228 8.704,-147.135 -16.694,-183.797L-22.663,-154.709L-73.989,-97.162C37.346,117.781 -83.872,226.802 -83.872,226.802C-61.409,93.23 -109.39,2.311 -132.178,-31.92L-132.827,-31.192C-120.987,0.317 -116.056,28.676 -116.651,51.143C-119.153,145.384 -173.045,227.234 -252.721,268.526L-284.276,567.793L63.79,527.062L-130.146,501.545C-130.146,501.545 -50.204,449.417 0,383.996" style="fill:rgb(166,141,103);fill-rule:nonzero;"/>
            </g>
        </g>
    </g>
</svg>
